<svg width="31" height="8" viewBox="0 0 31 8" fill="none" xmlns="http://www.w3.org/2000/svg">
<path fill-rule="evenodd" clip-rule="evenodd" d="M4.14029 0.45166L0.845703 7.41045H4.78979L5.27874 6.30093H6.39637L6.88533 7.41045H11.2267V6.56363L11.6135 7.41045H13.8592L14.246 6.54573V7.41045H23.2748L24.3726 6.32974L25.4006 7.41045L30.038 7.4194L26.733 3.95048L30.038 0.45166H25.4726L24.4039 1.5124L23.4082 0.45166H13.5861L12.7427 2.24778L11.8795 0.45166H7.94361V1.26967L7.50578 0.45166H4.14029ZM4.90317 1.4397H6.8257L9.011 6.15849V1.4397H11.1171L12.8049 4.82305L14.3605 1.4397H16.4561V6.43309H15.181L15.1706 2.5203L13.3116 6.43309H12.171L10.3016 2.5203V6.43309H7.67851L7.18121 5.31364H4.49449L3.99822 6.43211H2.59277L4.90317 1.4397ZM22.8077 1.43982H17.6229V6.43026H22.7274L24.3726 4.77635L25.9584 6.43026H27.6161L25.2067 3.9495L27.6161 1.43982H26.0303L24.3935 3.07474L22.8077 1.43982ZM5.83829 2.28467L4.95312 4.27888H6.72243L5.83829 2.28467ZM18.9033 3.38525V2.4737V2.47283H22.1384L23.55 3.93062L22.0759 5.39638H18.9033V4.40123H21.7318V3.38525H18.9033Z" fill="white"/>
</svg>
