<svg width="15" height="15" viewBox="0 0 15 15" fill="none" xmlns="http://www.w3.org/2000/svg">
<path d="M0.775862 0C1.2042 0 1.55172 0.347522 1.55172 0.775862V4.07651C2.83513 1.92575 5.18211 0.520797 7.76185 0.520797C11.7543 0.520797 15 3.76616 15 7.75862C15 11.7511 11.7543 14.9968 7.76185 14.9968C6.0708 14.9968 4.42241 14.4042 3.12284 13.3232C2.79343 13.0484 2.74914 12.5596 3.02386 12.2302C3.29864 11.8998 3.78873 11.8565 4.11685 12.1312C5.13685 12.9795 6.42996 13.4483 7.75862 13.4483C10.8954 13.4483 13.4483 10.8954 13.4483 7.75862C13.4483 4.62187 10.8944 2.06897 7.75862 2.06897C5.60754 2.06897 3.65948 3.30647 2.69935 5.17241H5.94828C6.37823 5.17241 6.72414 5.52155 6.72414 5.94828C6.72414 6.375 6.37823 6.72414 5.94828 6.72414H0.775862C0.347522 6.72414 0 6.37823 0 5.94828V0.775862C0 0.347522 0.347522 0 0.775862 0Z" fill="#5F6061"/>
</svg>
