<svg width="16" height="15" viewBox="0 0 16 15" fill="none" xmlns="http://www.w3.org/2000/svg">
<path fill-rule="evenodd" clip-rule="evenodd" d="M7.02678 4.64258C7.27127 4.73148 7.5491 4.8315 7.76025 4.86206C8.23812 4.93986 8.62987 4.84817 8.66148 4.65966L8.66154 4.65933C8.68401 4.52756 8.69742 4.44891 7.81854 4.19735L7.63801 4.14526L7.63419 4.14412C7.12564 3.99325 5.79096 3.59726 6.00435 2.22627C6.14327 1.56281 6.63503 1.11772 7.33628 0.959077V0.666797C7.33628 0.29867 7.63439 0 8.00252 0C8.37065 0 8.66932 0.29867 8.66932 0.666797V0.979358C8.83324 1.01723 9.00877 1.06532 9.21998 1.13831C9.56813 1.25889 9.75203 1.63846 9.63229 1.98653C9.51254 2.3346 9.13247 2.51777 8.78434 2.39883C8.5543 2.31895 8.3756 2.2699 8.2384 2.24819C7.76859 2.17404 7.37562 2.26555 7.3435 2.45354C7.34287 2.45724 7.34222 2.46093 7.34157 2.46459C7.32216 2.57366 7.30611 2.66392 8.01308 2.86445L8.16019 2.91529C8.8695 3.11783 10.1914 3.49596 9.94999 4.88651C9.86053 5.5497 9.37126 5.99776 8.66918 6.15676V6.44571C8.66918 6.81383 8.37051 7.1125 8.00238 7.1125C7.63426 7.1125 7.33614 6.81383 7.33614 6.44571V6.1042C7.07192 6.0426 6.81093 5.95831 6.57516 5.87326L6.44583 5.82725C6.0994 5.7039 5.91823 5.29826 6.04047 4.97597C6.16272 4.65369 6.54335 4.44809 6.89064 4.59534L7.02678 4.64258ZM14.2325 9.1082C14.7268 8.74171 15.4219 8.84868 15.7864 9.3435C16.1504 9.83804 16.0448 10.5326 15.503 10.8969L11.7495 13.6618C11.2555 14.0253 10.6474 14.225 10.0353 14.225H0.419527C0.201456 14.225 0 14.025 0 13.7799V11.1133C0 10.8716 0.201456 10.6438 0.419527 10.6438L1.95816 10.6688L3.25008 9.62025C3.83353 9.14793 4.58423 8.89094 5.30937 8.89094H9.77886C10.3206 8.89094 10.7477 9.37381 10.6574 9.92947C10.5846 10.3668 10.1498 10.6691 9.73024 10.6691H7.5562C7.3381 10.6691 7.13668 10.8705 7.13668 11.1136C7.13668 11.3564 7.31315 11.5578 7.5562 11.5578H10.9069L14.2325 9.1082Z" fill="#5F6061"/>
</svg>
