<svg width="23" height="21" viewBox="0 0 23 21" fill="none" xmlns="http://www.w3.org/2000/svg">
<path d="M15.3347 15.4412C14.9806 14.9596 14.3054 14.8555 13.8253 15.2122L10.5948 17.5964H7.33999C7.10389 17.5964 6.93246 17.4003 6.93246 17.164C6.93246 16.9274 7.12813 16.7314 7.33999 16.7314H9.45181C9.85934 16.7314 10.2817 16.4371 10.3524 16.0115C10.4401 15.4707 10.0253 15.0007 9.49904 15.0007H5.15745C4.45306 15.0007 3.72383 15.2509 3.15708 15.7106L1.90213 16.7311L0.407522 16.7067C0.195692 16.7067 0 16.9285 0 17.1637V19.7591C0 19.9976 0.195692 20.1923 0.407522 20.1923H9.74814C10.3427 20.1923 10.9335 19.9979 11.4133 19.6442L15.0594 16.9531C15.5857 16.5986 15.6883 15.9225 15.3347 15.4412Z" fill="#1D6EC1"/>
<path opacity="0.5" d="M7.20747 4.75119C7.56155 5.23279 8.2368 5.33689 8.71692 4.9802L11.9474 2.59599L15.2022 2.59599C15.4383 2.59599 15.6097 2.79204 15.6097 3.02837C15.6097 3.26498 15.414 3.46103 15.2022 3.46103H13.0904C12.6828 3.46103 12.2605 3.75524 12.1898 4.18086C12.1021 4.72168 12.5169 5.19166 13.0431 5.19166H17.3847C18.0891 5.19166 18.8183 4.94153 19.3851 4.48183L20.64 3.4613L22.1347 3.48567C22.3465 3.48567 22.5422 3.26393 22.5422 3.02867V0.433272C22.5422 0.19477 22.3465 7.53403e-05 22.1347 7.53403e-05L12.794 7.53403e-05C12.1995 7.53403e-05 11.6087 0.194446 11.1289 0.548197L7.48275 3.23932C6.95648 3.59383 6.85392 4.26986 7.20747 4.75119Z" fill="#99A0A7"/>
<path d="M11.6431 7.76654C11.4126 7.62513 11.1163 7.55441 10.787 7.55441C10.0954 7.55441 9.60147 7.90794 9.27218 8.57967H11.3797V9.42816H9.04167C9.00875 9.56957 9.00875 9.71099 9.00875 9.88775C9.00875 10.0292 9.00875 10.1706 9.00875 10.2413H11.3797V11.0898H9.20633C9.37097 11.4433 9.56855 11.7261 9.86492 11.9382C10.1284 12.1504 10.4577 12.2564 10.8199 12.2564C11.1492 12.2564 11.4785 12.2211 11.709 12.0797C11.9395 11.9382 12.203 11.7261 12.4664 11.4079L13.125 12.2918C12.5323 13.0342 11.7749 13.4231 10.787 13.4231C10.1284 13.4231 9.56855 13.211 9.04167 12.7514C8.5148 12.3271 8.15256 11.7615 7.95498 11.0544H7V10.2766H7.79032C7.79032 10.2059 7.79032 10.0645 7.79032 9.92311C7.79032 9.7817 7.79032 9.60493 7.82325 9.46352H7V8.61504H8.02083C8.21841 7.94333 8.58065 7.41302 9.0746 7.02413C9.56855 6.63523 10.1613 6.4231 10.787 6.4231C11.7419 6.4231 12.4993 6.77663 13.0591 7.55441L12.4005 8.4029C12.1371 8.12007 11.8737 7.90794 11.6431 7.76654Z" fill="#1D6EC1"/>
</svg>
