<svg width="16" height="13" viewBox="0 0 16 13" fill="none" xmlns="http://www.w3.org/2000/svg">
<path fill-rule="evenodd" clip-rule="evenodd" d="M10.4 1.2C10.4 0.53725 9.8625 0 9.2 0H1.2C0.53725 0 0 0.53725 0 1.2V9.2C0 9.8625 0.53725 10.4 1.2 10.4H1.6C1.6 11.725 2.6525 12.8 4 12.8C5.325 12.8 6.4 11.725 6.4 10.4H9.6C9.6 11.725 10.6525 12.8 12 12.8C13.325 12.8 14.4 11.725 14.4 10.4H15.2C15.6425 10.4 16 10.0425 16 9.6C16 9.1575 15.6425 8.8 15.2 8.8V5.9325C15.2 5.5075 15.0325 5.1 14.7325 4.8L12.8 2.8675C12.4775 2.5675 12.0925 2.4 11.6675 2.4H10.4V1.2ZM10.4004 6.4V4H11.6679L13.6004 5.9325V6.4H10.4004ZM4 9.2C3.3375 9.2 2.8 9.7375 2.8 10.4C2.8 11.0625 3.3375 11.6 4 11.6C4.6625 11.6 5.2 11.0625 5.2 10.4C5.2 9.7375 4.6625 9.2 4 9.2ZM13.2 10.4C13.2 11.0625 12.6625 11.6 12 11.6C11.3375 11.6 10.8 11.0625 10.8 10.4C10.8 9.7375 11.3375 9.2 12 9.2C12.6625 9.2 13.2 9.7375 13.2 10.4Z" fill="#3DBD00"/>
</svg>
