<svg width="17" height="20" viewBox="0 0 17 20" fill="none" xmlns="http://www.w3.org/2000/svg">
<path fill-rule="evenodd" clip-rule="evenodd" d="M9.74805 4.34082C10.3542 3.54492 11.0378 2.75391 11.7943 2.00195C14.4375 4.62891 16.3333 8.9209 16.3333 11.001C16.3333 15.9717 12.6784 20 8.16667 20C3.65495 20 0 15.9717 0 11.001C0 8.20316 2.54297 3.55957 6.125 0C7.51953 1.38672 8.75456 2.87598 9.74805 4.34082ZM8.2687 16C9.29216 16 10.2359 15.6484 11.0068 15.0576C12.7524 13.71 13.1601 11.1025 12.1898 9.06152C12.0701 8.8125 11.9372 8.54883 11.791 8.28516L9.71306 10.8975C9.71306 10.8975 6.45659 6.3125 6.20848 6C4.48941 8.27051 3.62988 9.59863 3.62988 11.1074C3.62988 14.1348 5.71225 16 8.2687 16Z" fill="#CA232C"/>
</svg>
