<svg width="28" height="20" viewBox="0 0 28 20" fill="none" xmlns="http://www.w3.org/2000/svg">
<path fill-rule="evenodd" clip-rule="evenodd" d="M22.4618 19.2834C22.4864 19.2834 22.5056 19.2888 22.5183 19.2996C22.532 19.3114 22.5384 19.3258 22.5384 19.3448C22.5384 19.3601 22.5339 19.3736 22.5229 19.3836C22.512 19.3944 22.4964 19.3998 22.4773 19.4025L22.5402 19.4747H22.491L22.4326 19.4034H22.4134V19.4747H22.3723V19.2834H22.4618ZM22.4494 19.5407C22.4722 19.5407 22.4932 19.5362 22.5124 19.5281C22.5316 19.5191 22.548 19.5082 22.5635 19.4938C22.5781 19.4794 22.5891 19.4622 22.5973 19.4424C22.6064 19.4234 22.61 19.4026 22.61 19.3801C22.61 19.3575 22.6064 19.3367 22.5973 19.3178C22.5891 19.2979 22.5781 19.2808 22.5635 19.2663C22.548 19.2519 22.5316 19.2411 22.5124 19.2329C22.4932 19.2248 22.4722 19.2203 22.4494 19.2203C22.4266 19.2203 22.4056 19.2248 22.3856 19.2329C22.3655 19.2411 22.3481 19.2519 22.3335 19.2663C22.3189 19.2808 22.308 19.2979 22.2998 19.3178C22.2906 19.3367 22.287 19.3575 22.287 19.3801C22.287 19.4026 22.2906 19.4234 22.2998 19.4424C22.308 19.4622 22.3189 19.4794 22.3335 19.4938C22.3481 19.5082 22.3655 19.5191 22.3856 19.5281C22.4056 19.5362 22.4266 19.5407 22.4494 19.5407ZM22.449 19.1742C22.4782 19.1742 22.5056 19.1796 22.5311 19.1904C22.5567 19.2012 22.5795 19.2157 22.5986 19.2346C22.6178 19.2527 22.6333 19.2753 22.6443 19.2996C22.6552 19.3249 22.6607 19.352 22.6607 19.38C22.6607 19.4079 22.6552 19.435 22.6443 19.4594C22.6333 19.4847 22.6178 19.5063 22.5986 19.5244C22.5795 19.5433 22.5567 19.5587 22.5311 19.5695C22.5056 19.5804 22.4782 19.5858 22.449 19.5858C22.4189 19.5858 22.3915 19.5804 22.365 19.5695C22.3395 19.5587 22.3167 19.5433 22.2975 19.5244C22.2793 19.5063 22.2637 19.4847 22.2528 19.4594C22.2418 19.435 22.2364 19.4079 22.2364 19.38C22.2364 19.352 22.2418 19.3249 22.2528 19.2996C22.2637 19.2753 22.2793 19.2527 22.2975 19.2346C22.3167 19.2157 22.3395 19.2012 22.365 19.1904C22.3915 19.1796 22.4189 19.1742 22.449 19.1742ZM19.3029 17.3562C19.3941 17.3562 19.5255 17.3743 19.6259 17.4131L19.4863 17.8364C19.3896 17.7976 19.2937 17.785 19.2016 17.785C18.905 17.785 18.7563 17.9745 18.7563 18.3166V19.4747H18.3018V17.4086H18.7517V17.6595C18.8694 17.4781 19.0401 17.3562 19.3029 17.3562ZM17.7297 17.8193H16.986V18.7535C16.986 18.9602 17.0608 19.0992 17.2881 19.0992C17.4058 19.0992 17.5545 19.0604 17.6896 18.9819L17.821 19.3673C17.6768 19.4666 17.4496 19.5271 17.2525 19.5271C16.715 19.5271 16.527 19.2419 16.527 18.7617V17.8193H16.1036V17.4086H16.527V16.7812H16.986V17.4086H17.7297V17.8193ZM15.5447 17.9357C15.4179 17.8581 15.1596 17.7588 14.8932 17.7588C14.644 17.7588 14.4953 17.85 14.4953 18.0007C14.4953 18.1388 14.6532 18.1785 14.8494 18.2038L15.0638 18.2336C15.5182 18.2986 15.7938 18.4891 15.7938 18.8528C15.7938 19.2455 15.4443 19.5271 14.8411 19.5271C14.4999 19.5271 14.185 19.4404 13.9368 19.259L14.1504 18.9088C14.3037 19.0252 14.5309 19.1245 14.8457 19.1245C15.156 19.1245 15.3221 19.0343 15.3221 18.8736C15.3221 18.7571 15.2034 18.6921 14.9543 18.6578L14.7408 18.6281C14.2726 18.5631 14.0189 18.3555 14.0189 18.0179C14.0189 17.6072 14.3602 17.3562 14.8895 17.3562C15.2217 17.3562 15.5228 17.4303 15.7418 17.5729L15.5447 17.9357ZM12.0743 18.2598C12.1227 17.9619 12.3061 17.7588 12.6291 17.7588C12.9221 17.7588 13.1101 17.9402 13.1584 18.2598H12.0743ZM13.6299 18.4421C13.6254 17.7976 13.2239 17.3562 12.638 17.3562C12.0266 17.3562 11.5977 17.7976 11.5977 18.4421C11.5977 19.0992 12.043 19.5271 12.6681 19.5271C12.983 19.5271 13.2713 19.4494 13.525 19.2373L13.3023 18.9042C13.1271 19.0432 12.9045 19.1209 12.6946 19.1209C12.4017 19.1209 12.1352 18.9864 12.0695 18.6145H13.6217C13.6254 18.5585 13.6299 18.5026 13.6299 18.4421ZM20.884 17.7796C20.79 17.7796 20.7033 17.7958 20.6239 17.8274C20.5436 17.8599 20.4752 17.9059 20.4168 17.9637C20.3584 18.0224 20.3127 18.0919 20.279 18.1731C20.2461 18.2544 20.2288 18.3437 20.2288 18.4421C20.2288 18.5396 20.2461 18.629 20.279 18.7102C20.3127 18.7914 20.3584 18.8618 20.4168 18.9196C20.4752 18.9783 20.5436 19.0234 20.6239 19.0559C20.7033 19.0884 20.79 19.1047 20.884 19.1047C20.9771 19.1047 21.0628 19.0884 21.1431 19.0559C21.2234 19.0234 21.2928 18.9783 21.3512 18.9196C21.4105 18.8618 21.4561 18.7914 21.4899 18.7102C21.5237 18.629 21.5401 18.5396 21.5401 18.4421C21.5401 18.3437 21.5237 18.2544 21.4899 18.1731C21.4561 18.0919 21.4105 18.0224 21.3512 17.9637C21.2928 17.9059 21.2234 17.8599 21.1431 17.8274C21.0628 17.7958 20.9771 17.7796 20.884 17.7796ZM20.884 17.3544C21.0446 17.3544 21.1942 17.3824 21.332 17.4375C21.4698 17.4925 21.5885 17.5684 21.6879 17.6658C21.7892 17.7633 21.8677 17.878 21.9243 18.0097C21.9809 18.1424 22.0091 18.2869 22.0091 18.4421C22.0091 18.5974 21.9809 18.7409 21.9243 18.8736C21.8677 19.0063 21.7892 19.1209 21.6879 19.2175C21.5885 19.315 21.4698 19.3908 21.332 19.4468C21.1942 19.5018 21.0446 19.5298 20.884 19.5298C20.7225 19.5298 20.5728 19.5018 20.435 19.4468C20.2981 19.3908 20.1795 19.315 20.0791 19.2175C19.9797 19.1209 19.9021 19.0063 19.8455 18.8736C19.788 18.7409 19.7597 18.5974 19.7597 18.4421C19.7597 18.2869 19.788 18.1424 19.8455 18.0097C19.9021 17.878 19.9797 17.7633 20.0791 17.6658C20.1795 17.5684 20.2981 17.4925 20.435 17.4375C20.5728 17.3824 20.7225 17.3544 20.884 17.3544ZM9.4649 18.4422C9.4649 18.0784 9.70582 17.7805 10.0991 17.7805C10.4742 17.7805 10.7279 18.0658 10.7279 18.4422C10.7279 18.8177 10.4742 19.1029 10.0991 19.1029C9.70582 19.1029 9.4649 18.805 9.4649 18.4422ZM11.1572 18.4421V17.4086H10.7028V17.6595C10.5577 17.4736 10.3396 17.3562 10.0421 17.3562C9.45625 17.3562 8.99724 17.8103 8.99724 18.4421C8.99724 19.0731 9.45625 19.5271 10.0421 19.5271C10.3396 19.5271 10.5577 19.4107 10.7028 19.2247V19.4747H11.1572V18.4421ZM8.59572 19.4747V18.1785C8.59572 17.6893 8.28089 17.3607 7.77352 17.3562C7.50706 17.3526 7.23147 17.4348 7.03984 17.7245C6.89566 17.4952 6.66844 17.3562 6.34905 17.3562C6.12639 17.3562 5.90738 17.4212 5.73673 17.664V17.4086H5.28229V19.4747H5.7413V18.3293C5.7413 17.9709 5.94297 17.7805 6.25232 17.7805C6.55437 17.7805 6.70768 17.9745 6.70768 18.3248V19.4747H7.16668V18.3293C7.16668 17.9709 7.37657 17.7805 7.67771 17.7805C7.98797 17.7805 8.13671 17.9745 8.13671 18.3248V19.4747H8.59572Z" fill="black"/>
<path fill-rule="evenodd" clip-rule="evenodd" d="M9.98846 14.3274H16.8674V2.4082H9.98846V14.3274Z" fill="#7375CF"/>
<path fill-rule="evenodd" clip-rule="evenodd" d="M10.6177 8.19241C10.6177 5.78828 11.7879 3.64691 13.6094 2.26676C12.2769 1.25762 10.5959 0.655273 8.76897 0.655273C4.44376 0.655273 0.937683 4.03014 0.937683 8.19241C0.937683 12.3547 4.44376 15.7295 8.76897 15.7295C10.5959 15.7295 12.2769 15.1272 13.6094 14.1181C11.7879 12.7379 10.6177 10.5965 10.6177 8.19241Z" fill="#EB001B"/>
<path fill-rule="evenodd" clip-rule="evenodd" d="M26.2812 8.19241C26.2812 12.3547 22.7751 15.7295 18.4499 15.7295C16.622 15.7295 14.9411 15.1272 13.6094 14.1181C15.431 12.7379 16.6012 10.5965 16.6012 8.19241C16.6012 5.78828 15.431 3.64691 13.6094 2.26676C14.9411 1.25762 16.622 0.655273 18.4499 0.655273C22.7751 0.655273 26.2812 4.03014 26.2812 8.19241Z" fill="#00A2E5"/>
<path fill-rule="evenodd" clip-rule="evenodd" d="M27.1485 13.6289V12.5745H27.0191L26.8721 13.2984L26.7236 12.5745H26.5956V13.6289H26.6853V12.8326L26.825 13.5187H26.9191L27.0573 12.8295V13.6289H27.1485ZM26.3336 13.6288V12.7539H26.4983V12.5745H26.0793V12.7539H26.244V13.6288H26.3336Z" fill="#00A2E5"/>
</svg>
