<svg width="24" height="18" viewBox="0 0 24 18" fill="none" xmlns="http://www.w3.org/2000/svg">
<path fill-rule="evenodd" clip-rule="evenodd" d="M5.33404 16.5403C5.33404 16.1896 5.54866 15.9017 5.89905 15.9017C6.2348 15.9017 6.46081 16.1775 6.46081 16.5403C6.46081 16.9031 6.2348 17.1788 5.89905 17.1788C5.54866 17.1788 5.33404 16.8909 5.33404 16.5403ZM6.8429 16.5403V15.5432H6.43723V15.7851C6.30878 15.6059 6.11367 15.4928 5.84864 15.4928C5.32591 15.4928 4.91699 15.9312 4.91699 16.5403C4.91699 17.1493 5.32591 17.5877 5.84864 17.5877C6.11367 17.5877 6.30878 17.4746 6.43723 17.2954V17.5373H6.8429V16.5403ZM20.5361 16.5402C20.5361 16.1896 20.7499 15.9016 21.1011 15.9016C21.4361 15.9016 21.6629 16.1774 21.6629 16.5402C21.6629 16.903 21.4361 17.1788 21.1011 17.1788C20.7499 17.1788 20.5361 16.8908 20.5361 16.5402ZM22.7326 17.3538C22.7546 17.3538 22.7717 17.359 22.7831 17.3703C22.7952 17.3807 22.8009 17.3947 22.8009 17.4129C22.8009 17.4286 22.7961 17.4408 22.7871 17.4503C22.7774 17.4599 22.7635 17.466 22.7465 17.4686L22.8026 17.5382H22.7587L22.7066 17.4695H22.6896V17.5382H22.653V17.3538H22.7326ZM22.7209 17.6017C22.7412 17.6017 22.7599 17.5973 22.777 17.5895C22.794 17.5808 22.8095 17.5703 22.8225 17.5564C22.8355 17.5425 22.8453 17.526 22.8526 17.5068C22.8599 17.4886 22.864 17.4686 22.864 17.4468C22.864 17.4251 22.8599 17.405 22.8526 17.3868C22.8453 17.3676 22.8355 17.3511 22.8225 17.3372C22.8095 17.3233 22.794 17.3128 22.777 17.305C22.7599 17.2963 22.7412 17.2928 22.7209 17.2928C22.7006 17.2928 22.6819 17.2963 22.664 17.305C22.6461 17.3128 22.6306 17.3233 22.6176 17.3372C22.6046 17.3511 22.5949 17.3676 22.5875 17.3868C22.5794 17.405 22.5762 17.4251 22.5762 17.4468C22.5762 17.4686 22.5794 17.4886 22.5875 17.5068C22.5949 17.526 22.6046 17.5425 22.6176 17.5564C22.6306 17.5703 22.6461 17.5808 22.664 17.5895C22.6819 17.5973 22.7006 17.6017 22.7209 17.6017ZM22.7213 17.2484C22.7474 17.2484 22.7717 17.2536 22.7945 17.264C22.8173 17.2745 22.8376 17.2884 22.8547 17.3067C22.8717 17.3249 22.8856 17.3458 22.8953 17.3702C22.9051 17.3937 22.9099 17.4198 22.9099 17.4467C22.9099 17.4737 22.9051 17.4998 22.8953 17.5233C22.8856 17.5476 22.8717 17.5685 22.8547 17.5868C22.8376 17.6042 22.8173 17.6181 22.7945 17.6294C22.7717 17.6399 22.7474 17.6451 22.7213 17.6451C22.6953 17.6451 22.6701 17.6399 22.6465 17.6294C22.6238 17.6181 22.6035 17.6042 22.5864 17.5868C22.5693 17.5685 22.5563 17.5476 22.5466 17.5233C22.5368 17.4998 22.5319 17.4737 22.5319 17.4467C22.5319 17.4198 22.5368 17.3937 22.5466 17.3702C22.5563 17.3458 22.5693 17.3249 22.5864 17.3067C22.6035 17.2884 22.6238 17.2745 22.6465 17.264C22.6701 17.2536 22.6953 17.2484 22.7213 17.2484ZM22.045 16.5403V14.7419H21.6394V15.7851C21.5101 15.6059 21.3158 15.4928 21.0508 15.4928C20.5281 15.4928 20.1191 15.9312 20.1191 16.5403C20.1191 17.1493 20.5281 17.5877 21.0508 17.5877C21.3158 17.5877 21.5101 17.4746 21.6394 17.2954V17.5373H22.045V16.5403ZM11.873 15.8807C12.134 15.8807 12.3015 16.0564 12.3445 16.3653H11.3779C11.4202 16.0773 11.5844 15.8807 11.873 15.8807ZM11.8797 15.4927C11.3342 15.4927 10.9521 15.919 10.9521 16.5402C10.9521 17.1744 11.3497 17.5877 11.9074 17.5877C12.1879 17.5877 12.4456 17.5128 12.6716 17.3084L12.4724 16.9865C12.3171 17.1205 12.1179 17.1953 11.931 17.1953C11.6692 17.1953 11.4318 17.0657 11.3733 16.7072H12.7577C12.761 16.6533 12.7651 16.5985 12.7651 16.5402C12.761 15.919 12.4025 15.4927 11.8797 15.4927ZM16.7732 16.5403C16.7732 16.1896 16.9879 15.9017 17.3391 15.9017C17.6748 15.9017 17.9 16.1775 17.9 16.5403C17.9 16.9031 17.6748 17.1788 17.3391 17.1788C16.9879 17.1788 16.7732 16.8909 16.7732 16.5403ZM18.2832 16.5402V15.5431H17.8775V15.785C17.7482 15.6058 17.5539 15.4927 17.2881 15.4927C16.7662 15.4927 16.3564 15.9312 16.3564 16.5402C16.3564 17.1492 16.7662 17.5877 17.2881 17.5877C17.5539 17.5877 17.7482 17.4746 17.8775 17.2953V17.5372H18.2832V16.5402ZM14.4844 16.5402C14.4844 17.1448 14.8787 17.5877 15.4786 17.5877C15.7591 17.5877 15.9469 17.5207 16.1493 17.3501L15.9542 16.9995C15.8022 17.1161 15.6428 17.1788 15.4672 17.1788C15.1437 17.1744 14.9055 16.9238 14.9055 16.5402C14.9055 16.1565 15.1437 15.9059 15.4672 15.9016C15.6428 15.9016 15.8022 15.9642 15.9542 16.0817L16.1493 15.7311C15.9469 15.5597 15.7591 15.4927 15.4786 15.4927C14.8787 15.4927 14.4844 15.9355 14.4844 16.5402ZM19.7097 15.4928C19.4755 15.4928 19.3235 15.6102 19.2186 15.7851V15.5432H18.8162V17.5373H19.2219V16.4193C19.2219 16.0896 19.3544 15.906 19.6202 15.906C19.7015 15.906 19.7877 15.9191 19.8731 15.9565L19.9983 15.5476C19.9088 15.5102 19.7918 15.4928 19.7097 15.4928ZM8.84685 15.7016C8.65174 15.5641 8.38346 15.4928 8.08673 15.4928C7.61521 15.4928 7.31116 15.7355 7.31116 16.1314C7.31116 16.4567 7.53717 16.6577 7.95422 16.7195L8.14526 16.7491C8.3672 16.7821 8.47289 16.8448 8.47289 16.9579C8.47289 17.1119 8.32412 17.1997 8.04771 17.1997C7.76724 17.1997 7.564 17.104 7.42742 16.9909L7.23637 17.3294C7.45912 17.5042 7.7396 17.5877 8.04364 17.5877C8.58183 17.5877 8.894 17.3163 8.894 16.937C8.894 16.5864 8.64849 16.4028 8.24282 16.3402L8.05177 16.3106C7.87617 16.2853 7.73553 16.2479 7.73553 16.1148C7.73553 15.9687 7.86804 15.8808 8.0908 15.8808C8.32818 15.8808 8.55825 15.9774 8.67125 16.0522L8.84685 15.7016ZM14.075 15.4928C13.8417 15.4928 13.6897 15.6102 13.584 15.7851V15.5432H13.1824V17.5373H13.5881V16.4193C13.5881 16.0896 13.7206 15.906 13.9856 15.906C14.0677 15.906 14.1539 15.9191 14.2392 15.9565L14.3636 15.5476C14.2742 15.5102 14.1571 15.4928 14.075 15.4928ZM10.6172 15.5433H9.95378V14.9377H9.54486V15.5433H9.16602V15.94H9.54486V16.8492C9.54486 17.312 9.71233 17.5878 10.192 17.5878C10.3676 17.5878 10.57 17.5295 10.6985 17.4329L10.5814 17.0623C10.4611 17.1371 10.3286 17.1745 10.2229 17.1745C10.0204 17.1745 9.95378 17.0414 9.95378 16.8405V15.94H10.6172V15.5433ZM4.55766 17.5373V16.2853C4.55766 15.8147 4.27719 15.4971 3.82518 15.4928C3.58698 15.4893 3.34147 15.5685 3.16993 15.8477C3.04148 15.6267 2.83906 15.4928 2.55371 15.4928C2.35534 15.4928 2.16023 15.5554 2.00821 15.7894V15.5432H1.60254V17.5373H2.01227V16.4315C2.01227 16.0852 2.19112 15.9017 2.46834 15.9017C2.73744 15.9017 2.87401 16.0896 2.87401 16.4272V17.5373H3.28293V16.4315C3.28293 16.0852 3.46991 15.9017 3.73901 15.9017C4.01623 15.9017 4.14874 16.0896 4.14874 16.4272V17.5373H4.55766Z" fill="#231F20"/>
<mask id="mask0_1_528" style="mask-type:luminance" maskUnits="userSpaceOnUse" x="0" y="0" width="24" height="18">
<path fill-rule="evenodd" clip-rule="evenodd" d="M0.5 17.2823H23.2764V0.22583H0.5V17.2823Z" fill="white"/>
</mask>
<g mask="url(#mask0_1_528)">
<path fill-rule="evenodd" clip-rule="evenodd" d="M8.94928 12.5646H14.8271V1.67749H8.94928V12.5646Z" fill="#FF5F00"/>
<path fill-rule="evenodd" clip-rule="evenodd" d="M9.19951 6.93954C9.19951 4.79806 10.2512 2.89063 11.8882 1.66126C10.6906 0.762367 9.17994 0.22583 7.53803 0.22583C3.65093 0.22583 0.5 3.23199 0.5 6.93954C0.5 10.6471 3.65093 13.6532 7.53803 13.6532C9.17994 13.6532 10.6906 13.1167 11.8882 12.2178C10.2512 10.9885 9.19951 9.08102 9.19951 6.93954Z" fill="#EB001B"/>
<path fill-rule="evenodd" clip-rule="evenodd" d="M23.2769 6.93954C23.2769 10.6471 20.1259 13.6532 16.2388 13.6532C14.5961 13.6532 13.0855 13.1167 11.8887 12.2178C13.5257 10.9885 14.5774 9.08102 14.5774 6.93954C14.5774 4.79806 13.5257 2.89063 11.8887 1.66126C13.0855 0.762367 14.5961 0.22583 16.2388 0.22583C20.1259 0.22583 23.2769 3.23199 23.2769 6.93954Z" fill="#F79E1B"/>
<path fill-rule="evenodd" clip-rule="evenodd" d="M23.5874 11.8088V11.113H23.4611L23.3175 11.5907L23.1724 11.113H23.0475V11.8088H23.1351V11.2833L23.2715 11.7361H23.3634L23.4984 11.2813V11.8088H23.5874ZM22.7919 11.8088V11.2314H22.9527V11.113H22.542V11.2314H22.7043V11.8088H22.7919Z" fill="#F79E1B"/>
</g>
</svg>
