<svg width="34" height="9" viewBox="0 0 34 9" fill="none" xmlns="http://www.w3.org/2000/svg">
<path fill-rule="evenodd" clip-rule="evenodd" d="M24.2589 2.66943H26.1274C26.7319 2.66943 27.2265 2.81383 27.5562 3.05449C27.7761 3.29516 27.886 3.68021 27.7761 4.11341C27.6112 5.17232 26.8968 5.70178 25.6328 5.70178H25.0283C24.8634 5.70178 24.7535 5.79804 24.7535 5.89431L24.5337 7.09762C24.5337 7.19388 24.4788 7.24201 24.3688 7.24201H23.3796C23.2697 7.24201 23.2148 7.19388 23.2148 7.09762L23.9842 2.86196C24.0391 2.7657 24.149 2.66943 24.2589 2.66943ZM25.2486 4.83539C25.7432 4.83539 26.2378 4.83539 26.3477 4.2578C26.3477 4.01714 26.3477 3.87274 26.2378 3.82461C26.0729 3.63208 25.7432 3.63208 25.4135 3.63208H25.3036C25.1937 3.63208 25.1387 3.68021 25.1387 3.72834L24.9189 4.83539H25.2486Z" fill="#139AD6"/>
<path fill-rule="evenodd" clip-rule="evenodd" d="M11.1246 2.68115H12.9169C13.5495 2.68115 13.9712 2.82367 14.2875 3.06121C14.4984 3.29875 14.6038 3.67881 14.4984 4.10637C14.3403 5.15153 13.655 5.67411 12.4425 5.67411H11.8626C11.7045 5.67411 11.599 5.76913 11.599 5.86414L11.3882 7.00432C11.3355 7.09933 11.23 7.19435 11.1246 7.19435H10.2811C10.1757 7.19435 10.123 7.14684 10.123 7.05183L10.861 2.87118C10.9137 2.77617 11.0192 2.68115 11.1246 2.68115ZM12.0731 4.81903C12.5475 4.81903 13.022 4.81903 13.1274 4.24894C13.1801 4.01141 13.1274 3.86888 13.0747 3.82138C12.9165 3.63135 12.6002 3.63135 12.284 3.63135H12.1785C12.0731 3.63135 12.0204 3.67886 12.0204 3.72636L11.8095 4.81903H12.0731Z" fill="#263B80"/>
<path fill-rule="evenodd" clip-rule="evenodd" d="M17.5035 4.20146H18.347C18.3997 4.20146 18.5051 4.29647 18.5578 4.34398L18.0834 7.00439C18.0307 7.09941 17.9252 7.19442 17.8198 7.19442H17.0291C16.9236 7.19442 16.8709 7.14691 16.8709 7.0519L16.9236 6.81436C16.9236 6.81436 16.5019 7.24193 15.7112 7.24193C15.2367 7.24193 14.8677 7.14691 14.6041 6.86187C14.3406 6.57683 14.1824 6.14926 14.2878 5.67419C14.446 4.77155 15.2894 4.10645 16.2383 4.10645C16.6601 4.10645 17.0291 4.20146 17.2399 4.439L17.2927 4.53401L17.3454 4.29647C17.3454 4.24897 17.4508 4.20146 17.5035 4.20146ZM16.1325 6.4819C16.6597 6.4819 17.0287 6.14935 17.1341 5.72179C17.1341 5.53176 17.0814 5.29422 16.9232 5.1517C16.7651 5.05668 16.6069 4.96167 16.3434 4.96167C15.8689 4.96167 15.4472 5.29422 15.3945 5.72179C15.3945 5.95932 15.4472 6.14935 15.5526 6.29188C15.658 6.38689 15.8689 6.4819 16.1325 6.4819Z" fill="#263B80"/>
<path fill-rule="evenodd" clip-rule="evenodd" d="M30.7035 4.20146H31.547C31.5997 4.20146 31.7051 4.29647 31.7578 4.34398L31.2834 7.00439C31.2307 7.09941 31.1253 7.19442 31.0198 7.19442H30.2291C30.1237 7.19442 30.0709 7.14691 30.0709 7.0519L30.1237 6.81436C30.1237 6.81436 29.7019 7.24193 28.9112 7.24193C28.4367 7.24193 28.0677 7.14691 27.8042 6.86187C27.5406 6.57683 27.3824 6.14926 27.4879 5.67419C27.646 4.77155 28.4895 4.10645 29.4383 4.10645C29.8601 4.10645 30.2291 4.20146 30.4399 4.439L30.4927 4.53401L30.5454 4.29647C30.5454 4.24897 30.6508 4.20146 30.7035 4.20146ZM29.3325 6.4819C29.8597 6.4819 30.2287 6.14935 30.3341 5.72179C30.3341 5.53176 30.2814 5.29422 30.1232 5.1517C29.9651 5.05668 29.8069 4.96167 29.5434 4.96167C29.0689 4.96167 28.6472 5.29422 28.5945 5.72179C28.5945 5.95932 28.6472 6.14935 28.7526 6.29188C28.8581 6.38689 29.0689 6.4819 29.3325 6.4819Z" fill="#139AD6"/>
<path d="M23.0788 4.30249H22.1703C22.0634 4.30249 22.01 4.35129 21.9565 4.4001L20.7808 6.05944L20.2464 4.49771C20.193 4.4001 20.1395 4.35129 19.9792 4.35129H19.1241C19.0172 4.35129 18.9638 4.4489 18.9638 4.54651L19.9258 7.13314L19.0172 8.30444C18.9638 8.40205 19.0172 8.54846 19.1241 8.54846H19.9792C20.0861 8.54846 20.1395 8.49965 20.193 8.45085L23.1323 4.59532C23.2926 4.4489 23.1857 4.30249 23.0788 4.30249Z" fill="#263B80"/>
<path d="M32.4035 2.78411L31.7148 7.09821C31.7148 7.19408 31.764 7.24201 31.8624 7.24201H32.5511C32.6494 7.24201 32.7478 7.14615 32.797 7.05028L33.4857 2.83204C33.4857 2.73617 33.4365 2.68824 33.3381 2.68824H32.5511C32.5019 2.6403 32.4527 2.68824 32.4035 2.78411Z" fill="#139AD6"/>
<path d="M6.14132 1.28934C5.77921 0.902924 5.10671 0.709717 4.17556 0.709717H1.58904C1.43385 0.709717 1.27866 0.854623 1.22693 0.999528L0.192322 7.32708C0.192322 7.47198 0.295783 7.56859 0.399243 7.56859H2.00289L2.41673 5.20179V5.2984C2.46846 5.15349 2.62365 5.00859 2.77884 5.00859H3.5548C5.05498 5.00859 6.19305 4.42896 6.55516 2.835C6.55516 2.7867 6.55516 2.7384 6.55516 2.6901C6.50343 2.6901 6.50343 2.6901 6.55516 2.6901C6.60689 2.06217 6.50343 1.67576 6.14132 1.28934Z" fill="#263B80"/>
<path d="M6.65351 2.66943C6.65351 2.71884 6.65351 2.76824 6.65351 2.81764C6.28868 4.49737 5.14207 5.04081 3.63063 5.04081H2.84885C2.69249 5.04081 2.53614 5.18902 2.48402 5.33723L1.96283 8.35085C1.96283 8.44966 2.01495 8.54847 2.1713 8.54847H3.52639C3.68275 8.54847 3.8391 8.44966 3.8391 8.30145V8.25204L4.0997 6.72053V6.62172C4.0997 6.47351 4.25605 6.37471 4.41241 6.37471H4.62088C5.92385 6.37471 6.96623 5.88067 7.22682 4.39856C7.33106 3.80572 7.27894 3.26228 6.96623 2.91645C6.91411 2.81764 6.80987 2.71884 6.65351 2.66943Z" fill="#139AD6"/>
<path d="M6.09542 2.48975C6.04295 2.48975 5.99047 2.44076 5.938 2.44076C5.88553 2.44076 5.83306 2.44076 5.78059 2.39177C5.5707 2.34277 5.36081 2.34277 5.09845 2.34277H3.05205C2.99958 2.34277 2.94711 2.34277 2.89463 2.39177C2.78969 2.44076 2.73722 2.53874 2.73722 2.63673L2.31744 5.18431V5.28229C2.36992 5.13531 2.52733 4.98834 2.68475 4.98834H3.47182C4.99351 4.98834 6.14789 4.40043 6.51519 2.7837C6.51519 2.73471 6.51519 2.68572 6.56767 2.63673C6.46272 2.58773 6.41025 2.53874 6.30531 2.53874C6.14789 2.48975 6.14789 2.48975 6.09542 2.48975Z" fill="#232C65"/>
</svg>
