<svg width="29" height="24" viewBox="0 0 29 24" fill="none" xmlns="http://www.w3.org/2000/svg">
<path d="M25.869 14.1243L28.1073 4.37433C28.2689 3.67036 27.7284 3 26.9992 3H8.40154L7.96754 0.899531C7.8594 0.375984 7.39406 0 6.85424 0H1.99965C1.37204 0 0.863281 0.503672 0.863281 1.125V1.875C0.863281 2.49633 1.37204 3 1.99965 3H5.3085L8.63464 19.0985C7.8389 19.5516 7.30268 20.401 7.30268 21.375C7.30268 22.8247 8.4898 24 9.95419 24C11.4186 24 12.6057 22.8247 12.6057 21.375C12.6057 20.6403 12.3005 19.9765 11.8091 19.5H21.7356C21.2443 19.9765 20.939 20.6403 20.939 21.375C20.939 22.8247 22.1262 24 23.5906 24C25.055 24 26.2421 22.8247 26.2421 21.375C26.2421 20.3357 25.6318 19.4376 24.7469 19.0123L25.0081 17.8743C25.1697 17.1704 24.6292 16.5 23.9 16.5H11.1908L10.8809 15H24.7609C25.2915 15 25.7514 14.6365 25.869 14.1243Z" fill="#232F3E"/>
</svg>
