<svg width="24" height="24" viewBox="0 0 24 24" fill="none" xmlns="http://www.w3.org/2000/svg">
<path fill-rule="evenodd" clip-rule="evenodd" d="M9.16406 0C14.2172 0 18.3281 4.1109 18.3281 9.16406C18.3281 14.2172 14.2172 18.3281 9.16406 18.3281C7.51721 18.3281 5.91376 17.8898 4.50604 17.0574L0.0336914 18.2943L1.27075 13.8221C0.438354 12.4144 0 10.8109 0 9.16406C0 4.1109 4.1109 0 9.16406 0ZM6.35156 7.03125H7.75781C7.75781 6.2558 8.38861 5.625 9.16406 5.625C9.93951 5.625 10.5703 6.2558 10.5703 7.03125C10.5703 7.4306 10.4077 7.79919 10.1125 8.06927L8.46094 9.58099V11.2969H9.86719V10.2003L11.062 9.10675C11.6433 8.57501 11.9766 7.81842 11.9766 7.03125C11.9766 5.48035 10.715 4.21875 9.16406 4.21875C7.61316 4.21875 6.35156 5.48035 6.35156 7.03125ZM9.86719 12.7031V14.1094H8.46094V12.7031H9.86719ZM19.7329 9.31299C22.2918 10.6059 24.0004 13.2639 24.0004 16.2421C24.0004 17.6384 23.6285 18.9963 22.9219 20.1895L23.9665 23.966L20.1899 22.9214C18.9968 23.628 17.6389 23.9999 16.2426 23.9999C13.2643 23.9999 10.6064 22.2913 9.31348 19.7324C15.0238 19.653 19.6534 15.0233 19.7329 9.31299Z" fill="#232F3E"/>
</svg>
