<svg width="24" height="24" viewBox="0 0 24 24" fill="none" xmlns="http://www.w3.org/2000/svg">
<path fill-rule="evenodd" clip-rule="evenodd" d="M17.8417 15.19L23.6705 21.0188C24.1098 21.4582 24.1098 22.1705 23.6705 22.6098L22.6098 23.6705C22.1705 24.1098 21.4582 24.1098 21.0188 23.6705L15.19 17.8417C13.636 18.8884 11.7645 19.5 9.74999 19.5C4.36523 19.5 0 15.1347 0 9.74999C0 4.36523 4.36523 0 9.74999 0C15.1347 0 19.5 4.36523 19.5 9.74999C19.5 11.7645 18.8884 13.636 17.8417 15.19ZM9.74999 3.74999C6.44155 3.74999 3.74999 6.44155 3.74999 9.74999C3.74999 13.0583 6.44155 15.75 9.74999 15.75C13.0584 15.75 15.75 13.0583 15.75 9.74999C15.75 6.44155 13.0584 3.74999 9.74999 3.74999Z" fill="#232F3E"/>
</svg>
