<svg width="29" height="26" viewBox="0 0 29 26" fill="none" xmlns="http://www.w3.org/2000/svg">
<g filter="url(#filter0_d_230_9)">
<path fill-rule="evenodd" clip-rule="evenodd" d="M20.5855 15.19L26.7146 21.0188C27.1766 21.4582 27.1766 22.1705 26.7146 22.6098L25.5993 23.6705C25.1373 24.1098 24.3883 24.1098 23.9263 23.6705L17.7971 17.8417C16.1631 18.8884 14.1952 19.5 12.0768 19.5C6.41462 19.5 1.82446 15.1347 1.82446 9.74999C1.82446 4.36523 6.41462 0 12.0768 0C17.739 0 22.3292 4.36523 22.3292 9.74999C22.3292 11.7645 21.6861 13.636 20.5855 15.19ZM12.0768 3.74999C8.59793 3.74999 5.76768 6.44155 5.76768 9.74999C5.76768 13.0583 8.59793 15.75 12.0768 15.75C15.5557 15.75 18.386 13.0583 18.386 9.74999C18.386 6.44155 15.5557 3.74999 12.0768 3.74999Z" fill="#37424F" fill-opacity="0.1"/>
</g>
<defs>
<filter id="filter0_d_230_9" x="0.824463" y="0" width="27.2367" height="26" filterUnits="userSpaceOnUse" color-interpolation-filters="sRGB">
<feFlood flood-opacity="0" result="BackgroundImageFix"/>
<feColorMatrix in="SourceAlpha" type="matrix" values="0 0 0 0 0 0 0 0 0 0 0 0 0 0 0 0 0 0 127 0" result="hardAlpha"/>
<feOffset dy="1"/>
<feGaussianBlur stdDeviation="0.5"/>
<feColorMatrix type="matrix" values="0 0 0 0 0 0 0 0 0 0 0 0 0 0 0 0 0 0 0.15 0"/>
<feBlend mode="normal" in2="BackgroundImageFix" result="effect1_dropShadow_230_9"/>
<feBlend mode="normal" in="SourceGraphic" in2="effect1_dropShadow_230_9" result="shape"/>
</filter>
</defs>
</svg>
