<svg width="82" height="14" viewBox="0 0 82 14" fill="none" xmlns="http://www.w3.org/2000/svg">
<path fill-rule="evenodd" clip-rule="evenodd" d="M8.34568 0.486669L10.1861 4.10691L14.3042 4.68905C15.0431 4.79284 15.3391 5.67587 14.8035 6.18172L11.8246 8.97346L12.5293 12.9519C12.6561 13.6713 11.8758 14.207 11.2216 13.8734L7.53839 12.02L3.85633 13.8985C3.20093 14.2321 2.42176 13.6962 2.54834 12.9771L3.25297 8.99861L0.273284 6.18226C-0.262007 5.67641 0.0337393 4.7935 0.77257 4.6896L4.89062 4.10746L6.73109 0.487216C7.06301 -0.166369 8.01658 -0.158248 8.34568 0.486669ZM25.5762 0.486669L27.4166 4.10691L31.5347 4.68905C32.2736 4.79284 32.5695 5.67587 32.034 6.18172L29.0551 8.97346L29.7597 12.9519C29.8865 13.6713 29.1063 14.207 28.452 13.8734L24.7689 12.02L21.0868 13.8985C20.4314 14.2321 19.6522 13.6962 19.7788 12.9771L20.4834 8.99861L17.5038 6.18226C16.9685 5.67641 17.2642 4.7935 18.003 4.6896L22.1211 4.10746L23.9616 0.487216C24.2935 -0.166369 25.247 -0.158248 25.5762 0.486669ZM43.5708 4.10691L41.7303 0.486669C41.4012 -0.158248 40.4476 -0.166369 40.1157 0.487216L38.2752 4.10746L34.1572 4.6896C33.4184 4.7935 33.1226 5.67641 33.6579 6.18226L36.6376 8.99861L35.933 12.9771C35.8064 13.6962 36.5855 14.2321 37.2409 13.8985L40.923 12.02L44.6062 13.8734C45.2605 14.207 46.0407 13.6713 45.9139 12.9519L45.2093 8.97346L48.1881 6.18172C48.7237 5.67587 48.4278 4.79284 47.6888 4.68905L43.5708 4.10691ZM58.9611 0.486669L60.8015 4.10691L64.9196 4.68905C65.6585 4.79284 65.9544 5.67587 65.4189 6.18172L62.44 8.97346L63.1447 12.9519C63.2715 13.6713 62.4912 14.207 61.837 13.8734L58.1538 12.02L54.4717 13.8985C53.8163 14.2321 53.0371 13.6962 53.1637 12.9771L53.8683 8.99861L50.8887 6.18226C50.3534 5.67641 50.6491 4.7935 51.388 4.6896L55.506 4.10746L57.3465 0.487216C57.6784 -0.166369 58.632 -0.158248 58.9611 0.486669ZM76.9557 4.10691L75.1152 0.486669C74.7861 -0.158248 73.8325 -0.166369 73.5006 0.487216L71.6602 4.10746L67.5421 4.6896C66.8033 4.7935 66.5075 5.67641 67.0428 6.18226L70.0225 8.99861L69.3179 12.9771C69.1913 13.6962 69.9705 14.2321 70.6259 13.8985L74.3079 12.02L77.9911 13.8734C78.6454 14.207 79.4256 13.6713 79.2988 12.9519L78.5942 8.97346L81.573 6.18172C82.1086 5.67587 81.8127 4.79284 81.0737 4.68905L76.9557 4.10691Z" fill="#F9BF3B"/>
</svg>
