<svg width="14" height="14" viewBox="0 0 14 14" fill="none" xmlns="http://www.w3.org/2000/svg">
<path fill-rule="evenodd" clip-rule="evenodd" d="M11.9497 11.9497C12.6789 11.2206 12.8419 10.14 12.4394 9.25326C13.3511 8.91092 14 8.0313 14 7C14 5.9687 13.3511 5.08908 12.4394 4.74674C12.8419 3.86004 12.6789 2.77944 11.9497 2.05026C11.2205 1.32106 10.14 1.15809 9.25326 1.56056C8.91092 0.648867 8.0313 0 7 0C5.9687 0 5.08908 0.648867 4.74674 1.56056C3.86006 1.15812 2.77946 1.32109 2.05026 2.05026C1.32109 2.77944 1.15809 3.86004 1.56056 4.74674C0.648867 5.08908 0 5.9687 0 7C0 8.0313 0.648867 8.91092 1.56056 9.25326C1.15812 10.14 1.32109 11.2206 2.05026 11.9497C2.77752 12.677 3.85659 12.8435 4.74674 12.4394C5.08908 13.3511 5.9687 14 7 14C8.0313 14 8.91092 13.3511 9.25326 12.4394C10.1442 12.8439 11.2231 12.6764 11.9497 11.9497ZM10.3975 5.88748L6.37249 10.3854C6.23582 10.5382 6.0142 10.5382 5.87751 10.3854L3.60251 7.84309C3.46583 7.69035 3.46583 7.4427 3.60251 7.28996L4.09747 6.73683C4.23417 6.5841 4.45578 6.5841 4.59246 6.73683L6.125 8.44946L9.40754 4.78123C9.54424 4.62847 9.76585 4.62849 9.90253 4.78123L10.3975 5.33435C10.5342 5.48709 10.5342 5.73474 10.3975 5.88748Z" fill="#3DBD00"/>
</svg>
