<svg width="29" height="9" viewBox="0 0 29 9" fill="none" xmlns="http://www.w3.org/2000/svg">
<path fill-rule="evenodd" clip-rule="evenodd" d="M6.86957 5.76667L9.00927 0.45166V0.452519H11.32L7.88628 8.26685H5.57554L3.61621 1.54207C5.00047 2.19488 6.24084 3.5091 6.63648 4.7185L6.86957 5.76667ZM12.2005 0.45166L10.8341 8.27466H13.0181L14.3836 0.45166H12.2005ZM18.7883 3.63835C18.0251 3.29159 17.5572 3.05756 17.5572 2.70291C17.5666 2.38045 17.9529 2.05009 18.8155 2.05009C19.525 2.03369 20.0466 2.18711 20.4422 2.33975L20.6404 2.42114L20.9373 0.784374C20.5059 0.630957 19.822 0.461914 18.9771 0.461914C16.8204 0.461914 15.3018 1.4936 15.2924 2.96913C15.2746 4.05799 16.3796 4.66222 17.2067 5.02469C18.0515 5.39651 18.3391 5.63758 18.3391 5.96794C18.3297 6.47515 17.6559 6.70919 17.0272 6.70919C16.1561 6.70919 15.6881 6.58865 14.9778 6.30603L14.6902 6.18549L14.3848 7.88647C14.8978 8.0963 15.8412 8.28096 16.8205 8.29041C19.1125 8.29041 20.6039 7.27435 20.6227 5.7018C20.6301 4.83916 20.0474 4.17844 18.7883 3.63835ZM24.8467 0.47583H26.5364L28.2974 8.28089H26.2759L25.9484 6.72242H23.3842L22.7529 8.27462H20.4609L23.705 1.10521C23.9304 0.613622 24.326 0.47583 24.8467 0.47583ZM24.0196 5.156C24.0662 5.15206 24.8991 2.62217 24.8991 2.62217L25.5644 5.156H24.0196Z" fill="#2394BC"/>
<path d="M5.72177 1.44762C5.55793 0.857888 5.03542 0.460148 4.32579 0.45166H0.996204L0.961914 0.594765C3.55922 1.18756 5.73928 3.01159 6.44653 4.72732L5.72177 1.44762Z" fill="#EFC75E"/>
</svg>
